<svg width="178" height="50" viewBox="0 0 178 50" fill="none" xmlns="http://www.w3.org/2000/svg">
<g filter="url(#filter0_i_458_16559)">
<path fill-rule="evenodd" clip-rule="evenodd" d="M25.724 1.51053C24.2697 1.26827 22.8113 1.91866 22.0197 3.16255L8.16428 24.9352C7.06833 26.6574 7.58593 28.9427 9.31698 30.0246L9.78417 30.3166C10.6108 30.8332 11.6087 31.0003 12.5585 30.781L13.0022 30.6786C15.7211 30.051 18.1201 32.5633 17.3677 35.2503L15.3299 42.5282C14.9719 43.8067 15.3313 45.1789 16.2702 46.1177L16.3305 46.1781C16.5017 46.3492 16.6893 46.503 16.8906 46.6373L17.1261 46.7942C18.8454 47.9404 21.1714 47.4443 22.2734 45.6963L36.278 23.4822C37.2501 21.9404 36.8159 19.9048 35.2994 18.8938C34.6838 18.4834 33.95 18.2876 33.2118 18.3368L30.6245 18.5092C28.0181 18.6829 26.0677 16.1583 26.8937 13.6802L29.2524 6.60416C29.7392 5.14353 29.264 3.53423 28.0618 2.57239L27.7478 2.32122C27.2576 1.92903 26.6751 1.66896 26.0559 1.56581L25.724 1.51053ZM13.9242 19.8016C14.5571 20.1566 14.9262 20.701 14.7487 21.0174C14.5712 21.3339 13.9143 21.3026 13.2814 20.9476C12.6485 20.5926 12.2793 20.0483 12.4568 19.7318C12.6343 19.4154 13.2913 19.4466 13.9242 19.8016ZM18.3026 23.4392C18.4802 23.1227 18.111 22.5784 17.4781 22.2234C16.8452 21.8684 16.1882 21.8371 16.0107 22.1536C15.8332 22.47 16.2024 23.0143 16.8353 23.3693C17.4682 23.7243 18.1251 23.7556 18.3026 23.4392ZM21.3633 24.8718C21.9961 25.2268 22.3653 25.7711 22.1878 26.0876C22.0103 26.404 21.3533 26.3728 20.7205 26.0178C20.0876 25.6628 19.7184 25.1184 19.8959 24.802C20.0734 24.4855 20.7304 24.5168 21.3633 24.8718ZM26.0731 28.7341C26.2506 28.4176 25.8815 27.8733 25.2486 27.5183C24.6157 27.1633 23.9587 27.132 23.7812 27.4485C23.6037 27.7649 23.9729 28.3092 24.6058 28.6643C25.2387 29.0193 25.8956 29.0505 26.0731 28.7341ZM29.1338 30.1667C29.7667 30.5217 30.1358 31.0661 29.9583 31.3825C29.7808 31.699 29.1239 31.6677 28.491 31.3127C27.8581 30.9577 27.4889 30.4134 27.6664 30.0969C27.8439 29.7805 28.5009 29.8117 29.1338 30.1667Z" fill="url(#paint0_radial_458_16559)"/>
</g>
<path d="M173.221 39.7667V32.2368L166.382 41.0792C166.059 41.4937 165.484 41.701 164.655 41.701H163.998C163.215 41.701 162.697 41.5743 162.444 41.321C162.191 41.0677 162.064 40.5496 162.064 39.7667V26.3648C162.064 25.5819 162.191 25.0638 162.444 24.8105C162.697 24.5572 163.215 24.4305 163.998 24.4305H164.655C165.437 24.4305 165.956 24.5572 166.209 24.8105C166.462 25.0638 166.589 25.5819 166.589 26.3648V33.8947L173.428 25.0523C173.75 24.6378 174.326 24.4305 175.155 24.4305H175.811C176.594 24.4305 177.112 24.5572 177.366 24.8105C177.619 25.0638 177.746 25.5819 177.746 26.3648V39.7667C177.746 40.5496 177.619 41.0677 177.366 41.321C177.112 41.5743 176.594 41.701 175.811 41.701H175.155C174.372 41.701 173.854 41.5743 173.601 41.321C173.347 41.0677 173.221 40.5496 173.221 39.7667Z" fill="#351C5D"/>
<path d="M143.772 39.7667V26.3648C143.772 25.5819 143.899 25.0638 144.152 24.8105C144.405 24.5572 144.923 24.4305 145.706 24.4305H146.328C147.111 24.4305 147.629 24.5572 147.882 24.8105C148.136 25.0638 148.262 25.5819 148.262 26.3648V39.7667C148.262 40.5496 148.136 41.0677 147.882 41.321C147.629 41.5743 147.111 41.701 146.328 41.701H145.706C144.923 41.701 144.405 41.5743 144.152 41.321C143.899 41.0677 143.772 40.5496 143.772 39.7667ZM150.784 29.3699L153.582 25.9158C154.065 25.3171 154.514 24.9256 154.929 24.7414C155.343 24.5342 155.942 24.4305 156.725 24.4305H158.452C159.235 24.4305 159.661 24.5342 159.73 24.7414C159.822 24.9256 159.626 25.3171 159.143 25.9158L154.618 31.4423C154.18 31.8799 153.962 32.2598 153.962 32.5822C153.962 32.8355 154.169 33.2039 154.583 33.6875L159.868 40.1812C160.352 40.7799 160.547 41.1829 160.455 41.3901C160.363 41.5974 159.926 41.701 159.143 41.701H157.416C156.633 41.701 156.034 41.5974 155.62 41.3901C155.205 41.1829 154.756 40.7799 154.272 40.1812L150.784 35.829C149.886 34.7237 149.437 33.5954 149.437 32.444C149.437 31.4999 149.886 30.4752 150.784 29.3699Z" fill="#351C5D"/>
<path d="M136.216 39.7667V32.2368L129.377 41.0792C129.055 41.4937 128.479 41.701 127.65 41.701H126.994C126.211 41.701 125.693 41.5743 125.439 41.321C125.186 41.0677 125.059 40.5496 125.059 39.7667V26.3648C125.059 25.5819 125.186 25.0638 125.439 24.8105C125.693 24.5572 126.211 24.4305 126.994 24.4305H127.65C128.433 24.4305 128.951 24.5572 129.204 24.8105C129.458 25.0638 129.584 25.5819 129.584 26.3648V33.8947L136.423 25.0523C136.746 24.6378 137.321 24.4305 138.15 24.4305H138.807C139.59 24.4305 140.108 24.5572 140.361 24.8105C140.614 25.0638 140.741 25.5819 140.741 26.3648V39.7667C140.741 40.5496 140.614 41.0677 140.361 41.321C140.108 41.5743 139.59 41.701 138.807 41.701H138.15C137.367 41.701 136.849 41.5743 136.596 41.321C136.343 41.0677 136.216 40.5496 136.216 39.7667Z" fill="#351C5D"/>
<path d="M122.186 46.488H121.529C120.747 46.488 120.228 46.3614 119.975 46.1081C119.722 45.8548 119.595 45.3367 119.595 44.5537V41.701H108.611V44.5537C108.611 45.3367 108.485 45.8548 108.231 46.1081C107.978 46.3614 107.46 46.488 106.677 46.488H106.021C105.238 46.488 104.72 46.3614 104.466 46.1081C104.213 45.8548 104.086 45.3367 104.086 44.5537V39.3867C104.086 38.6038 104.213 38.0857 104.466 37.8324C104.72 37.5791 105.238 37.4524 106.021 37.4524H106.193C106.516 37.1301 106.677 36.4738 106.677 35.4836V26.3648C106.677 25.5819 106.804 25.0638 107.057 24.8105C107.31 24.5572 107.828 24.4305 108.611 24.4305H119.733C120.516 24.4305 121.034 24.5572 121.288 24.8105C121.541 25.0638 121.668 25.5819 121.668 26.3648V37.4524H122.186C122.969 37.4524 123.487 37.5791 123.74 37.8324C123.993 38.0857 124.12 38.6038 124.12 39.3867V44.5537C124.12 45.3367 123.993 45.8548 123.74 46.1081C123.487 46.3614 122.969 46.488 122.186 46.488ZM111.202 28.6791V36.4853C111.202 36.5774 111.179 36.8998 111.133 37.4524H117.143V28.6791H111.202Z" fill="#351C5D"/>
<path d="M97.5698 34.4472V31.6839C97.5698 30.4174 97.305 29.5308 96.7754 29.0242C96.2457 28.5176 95.2786 28.2643 93.8739 28.2643C92.4693 28.2643 91.4906 28.5291 90.9379 29.0588C90.3853 29.5654 90.109 30.4404 90.109 31.6839V34.4472C90.109 35.6906 90.3853 36.5772 90.9379 37.1068C91.4906 37.6134 92.4693 37.8667 93.8739 37.8667C95.2786 37.8667 96.2457 37.6134 96.7754 37.1068C97.305 36.6002 97.5698 35.7136 97.5698 34.4472ZM93.8739 42.1152C91.0646 42.1152 88.9806 41.482 87.622 40.2155C86.2634 38.949 85.5841 37.0262 85.5841 34.4472V31.6839C85.5841 29.22 86.2864 27.3317 87.6911 26.0192C89.1188 24.6836 91.1797 24.0158 93.8739 24.0158C96.6832 24.0158 98.7557 24.6491 100.091 25.9156C101.427 27.1821 102.095 29.1048 102.095 31.6839V34.4472C102.095 36.9341 101.392 38.8338 99.9876 40.1464C98.606 41.4589 96.5681 42.1152 93.8739 42.1152Z" fill="#351C5D"/>
<path d="M67.6377 39.7667V26.3648C67.6377 25.5819 67.7644 25.0638 68.0176 24.8105C68.2709 24.5572 68.7891 24.4305 69.572 24.4305H70.1937C70.9766 24.4305 71.4948 24.5572 71.7481 24.8105C72.0014 25.0638 72.128 25.5819 72.128 26.3648V39.7667C72.128 40.5496 72.0014 41.0677 71.7481 41.321C71.4948 41.5743 70.9766 41.701 70.1937 41.701H69.572C68.7891 41.701 68.2709 41.5743 68.0176 41.321C67.7644 41.0677 67.6377 40.5496 67.6377 39.7667ZM74.6495 29.3699L77.4473 25.9158C77.9309 25.3171 78.3799 24.9256 78.7944 24.7414C79.2089 24.5342 79.8076 24.4305 80.5905 24.4305H82.3176C83.1005 24.4305 83.5265 24.5342 83.5956 24.7414C83.6877 24.9256 83.492 25.3171 83.0084 25.9158L78.4835 31.4423C78.046 31.8799 77.8273 32.2598 77.8273 32.5822C77.8273 32.8355 78.0345 33.2039 78.449 33.6875L83.7337 40.1812C84.2173 40.7799 84.413 41.1829 84.3209 41.3901C84.2288 41.5974 83.7913 41.701 83.0084 41.701H81.2813C80.4984 41.701 79.8997 41.5974 79.4852 41.3901C79.0707 41.1829 78.6217 40.7799 78.1381 40.1812L74.6495 35.829C73.7514 34.7237 73.3024 33.5954 73.3024 32.444C73.3024 31.4999 73.7514 30.4752 74.6495 29.3699Z" fill="#351C5D"/>
<path d="M139.222 13.9433V11.18C139.222 9.91354 138.957 9.02699 138.427 8.52039C137.897 8.01379 136.93 7.76049 135.526 7.76049C134.121 7.76049 133.142 8.0253 132.59 8.55493C132.037 9.06153 131.761 9.93657 131.761 11.18V13.9433C131.761 15.1868 132.037 16.0733 132.59 16.603C133.142 17.1096 134.121 17.3629 135.526 17.3629C136.93 17.3629 137.897 17.1096 138.427 16.603C138.957 16.0964 139.222 15.2098 139.222 13.9433ZM135.526 21.6114C132.716 21.6114 130.632 20.9781 129.274 19.7116C127.915 18.4451 127.236 16.5224 127.236 13.9433V11.18C127.236 8.71612 127.938 6.82789 129.343 5.51533C130.771 4.17975 132.831 3.51196 135.526 3.51196C138.335 3.51196 140.407 4.14521 141.743 5.41171C143.079 6.67821 143.746 8.60099 143.746 11.18V13.9433C143.746 16.4302 143.044 18.33 141.639 19.6425C140.258 20.9551 138.22 21.6114 135.526 21.6114Z" fill="#351C5D"/>
<path d="M106.898 3.9267H107.554C108.383 3.9267 108.959 4.13394 109.281 4.54843L114.946 16.3269L120.576 4.54843C120.876 4.13394 121.451 3.9267 122.303 3.9267H122.96C123.742 3.9267 124.261 4.05335 124.514 4.30665C124.767 4.55995 124.894 5.07806 124.894 5.86098V19.2628C124.894 20.0458 124.767 20.5639 124.514 20.8172C124.261 21.0705 123.742 21.1971 122.96 21.1971H122.303C121.52 21.1971 121.002 21.0705 120.749 20.8172C120.496 20.5639 120.369 20.0458 120.369 19.2628V13.8054L116.984 20.5754C116.662 20.9899 116.086 21.1971 115.257 21.1971H114.601C113.772 21.1971 113.196 20.9899 112.874 20.5754L109.489 13.8054V19.2628C109.489 20.0458 109.362 20.5639 109.109 20.8172C108.855 21.0705 108.337 21.1971 107.554 21.1971H106.898C106.115 21.1971 105.597 21.0705 105.344 20.8172C105.09 20.5639 104.964 20.0458 104.964 19.2628V5.86098C104.964 5.07806 105.09 4.55995 105.344 4.30665C105.597 4.05335 106.115 3.9267 106.898 3.9267Z" fill="#351C5D"/>
<path d="M98.1018 13.9433V11.18C98.1018 9.91354 97.837 9.02699 97.3073 8.52039C96.7777 8.01379 95.8106 7.76049 94.4059 7.76049C93.0012 7.76049 92.0226 8.0253 91.4699 8.55493C90.9173 9.06153 90.6409 9.93657 90.6409 11.18V13.9433C90.6409 15.1868 90.9173 16.0733 91.4699 16.603C92.0226 17.1096 93.0012 17.3629 94.4059 17.3629C95.8106 17.3629 96.7777 17.1096 97.3073 16.603C97.837 16.0964 98.1018 15.2098 98.1018 13.9433ZM94.4059 21.6114C91.5966 21.6114 89.5126 20.9781 88.154 19.7116C86.7954 18.4451 86.1161 16.5224 86.1161 13.9433V11.18C86.1161 8.71612 86.8184 6.82789 88.2231 5.51533C89.6508 4.17975 91.7117 3.51196 94.4059 3.51196C97.2152 3.51196 99.2877 4.14521 100.623 5.41171C101.959 6.67821 102.627 8.60099 102.627 11.18V13.9433C102.627 16.4302 101.924 18.33 100.52 19.6425C99.138 20.9551 97.1001 21.6114 94.4059 21.6114Z" fill="#351C5D"/>
<path d="M67.6219 26.1708V11.0764C67.6219 8.6125 68.3358 6.73578 69.7635 5.44625C71.2142 4.15673 73.2406 3.51196 75.8427 3.51196C81.3462 3.51196 84.0979 6.03345 84.0979 11.0764V13.8397C84.0979 16.3497 83.4762 18.2724 82.2327 19.608C80.9893 20.9436 79.1931 21.6114 76.8444 21.6114C74.6568 21.6114 73.0794 20.9551 72.1123 19.6426V26.1708C72.1123 26.9537 71.9856 27.4718 71.7323 27.7251C71.479 27.9784 70.9609 28.1051 70.178 28.1051H69.5562C68.7733 28.1051 68.2552 27.9784 68.0019 27.7251C67.7486 27.4718 67.6219 26.9537 67.6219 26.1708ZM79.5731 13.9433V11.18C79.5731 9.89051 79.3083 9.00396 78.7786 8.52039C78.272 8.01379 77.3049 7.76049 75.8772 7.76049C74.4726 7.76049 73.4939 8.0253 72.9412 8.55493C72.3886 9.06153 72.1123 9.93657 72.1123 11.18V13.9433C72.1123 15.1868 72.3886 16.0733 72.9412 16.603C73.4939 17.1096 74.4726 17.3629 75.8772 17.3629C77.2819 17.3629 78.249 17.1096 78.7786 16.603C79.3083 16.0964 79.5731 15.2098 79.5731 13.9433Z" fill="#351C5D"/>
<path d="M63.0018 21.1971H62.3455C61.5626 21.1971 61.0445 21.0705 60.7912 20.8172C60.5379 20.5639 60.4112 20.0458 60.4112 19.2628V8.17522H53.7794V19.2628C53.7794 20.0458 53.6527 20.5639 53.3994 20.8172C53.1461 21.0705 52.628 21.1971 51.8451 21.1971H51.1888C50.4059 21.1971 49.8878 21.0705 49.6345 20.8172C49.3812 20.5639 49.2545 20.0458 49.2545 19.2628V5.86098C49.2545 5.07806 49.3812 4.55995 49.6345 4.30665C49.8878 4.05335 50.4059 3.9267 51.1888 3.9267H63.0018C63.7847 3.9267 64.3028 4.05335 64.5561 4.30665C64.8094 4.55995 64.9361 5.07806 64.9361 5.86098V19.2628C64.9361 20.0458 64.8094 20.5639 64.5561 20.8172C64.3028 21.0705 63.7847 21.1971 63.0018 21.1971Z" fill="#351C5D"/>
<defs>
<filter id="filter0_i_458_16559" x="7.58923" y="0.480449" width="29.2069" height="46.9315" filterUnits="userSpaceOnUse" color-interpolation-filters="sRGB">
<feFlood flood-opacity="0" result="BackgroundImageFix"/>
<feBlend mode="normal" in="SourceGraphic" in2="BackgroundImageFix" result="shape"/>
<feColorMatrix in="SourceAlpha" type="matrix" values="0 0 0 0 0 0 0 0 0 0 0 0 0 0 0 0 0 0 127 0" result="hardAlpha"/>
<feOffset dy="-1.225"/>
<feGaussianBlur stdDeviation="0.49"/>
<feComposite in2="hardAlpha" operator="arithmetic" k2="-1" k3="1"/>
<feColorMatrix type="matrix" values="0 0 0 0 0.901961 0 0 0 0 0 0 0 0 0 0.494118 0 0 0 1 0"/>
<feBlend mode="normal" in2="shape" result="effect1_innerShadow_458_16559"/>
</filter>
<radialGradient id="paint0_radial_458_16559" cx="0" cy="0" r="1" gradientUnits="userSpaceOnUse" gradientTransform="translate(27.6129 2.33538) rotate(103.465) scale(44.7167 73.7966)">
<stop stop-color="#FF449F"/>
<stop offset="0.55" stop-color="#FE2A89"/>
<stop offset="1" stop-color="#FE1477"/>
</radialGradient>
</defs>
</svg>
