<svg width="113" height="56" viewBox="0 0 113 56" fill="none" xmlns="http://www.w3.org/2000/svg">
<mask id="path-1-outside-1_350_15364" maskUnits="userSpaceOnUse" x="-3.10208" y="-14.5083" width="116.192" height="74.5032" fill="black">
<rect fill="white" x="-3.10208" y="-14.5083" width="116.192" height="74.5032"/>
<path d="M6.10722 49.7929L11.6131 47.2889C12.11 48.0416 12.7873 48.5964 13.6449 48.9532C14.5142 49.279 15.5173 49.3894 16.6543 49.2844C17.8029 49.1483 19.0281 48.7843 20.3299 48.1922C22.2292 47.3284 23.6018 46.3823 24.4475 45.3538C25.3049 44.2942 25.5103 43.2736 25.0639 42.2919C24.7145 41.5237 24.1274 41.0824 23.3028 40.9681C22.4898 40.8227 21.186 41.0422 19.3914 41.6266L14.3102 43.2807C11.0392 44.3563 8.44708 44.6595 6.5339 44.1904C4.63235 43.6902 3.22541 42.4371 2.31308 40.431C1.59487 38.8518 1.44224 37.2987 1.8552 35.7716C2.2895 34.2348 3.21859 32.795 4.64246 31.452C6.05662 30.0878 7.90543 28.8864 10.1889 27.8479C12.4083 26.8385 14.5328 26.2715 16.5623 26.1469C18.582 26.001 20.371 26.2819 21.9292 26.9898C23.4776 27.6763 24.6488 28.7791 25.4427 30.2982L19.9368 32.8022C19.5098 32.1465 18.913 31.6839 18.1466 31.4144C17.3918 31.1138 16.4924 31.0334 15.4486 31.1733C14.3951 31.2919 13.2494 31.6327 12.0117 32.1956C10.2831 32.9817 9.02307 33.8638 8.23164 34.8419C7.44022 35.8199 7.25803 36.7785 7.68508 37.7175C8.01507 38.443 8.57104 38.8727 9.35299 39.0064C10.1466 39.1091 11.3553 38.907 12.9792 38.4003L18.2816 36.7229C20.6078 35.9482 22.5431 35.5316 24.0875 35.4731C25.6436 35.3835 26.898 35.6501 27.8508 36.2727C28.8249 36.8856 29.6177 37.8643 30.2291 39.2088C30.9571 40.8093 31.1068 42.4411 30.6783 44.1039C30.2615 45.7358 29.3286 47.2804 27.8795 48.7378C26.4304 50.1953 24.5322 51.4578 22.1847 52.5254C19.7945 53.6124 17.5372 54.227 15.4126 54.369C13.2784 54.4898 11.4069 54.169 9.79831 53.4069C8.17998 52.6233 6.94962 51.4187 6.10722 49.7929ZM37.7879 38.7458L35.7788 34.3283L52.4246 26.7579L54.4337 31.1754L37.7879 38.7458ZM41.1095 14.3649L63.2642 33.2633L57.4702 35.8983L37.7285 18.5682L39.5211 17.7529L39.608 44.0219L33.8139 46.657L34.131 17.5386L41.1095 14.3649ZM60.3717 5.60461L70.1986 27.2121L66.6419 25.9323L84.6641 17.7359L86.8479 22.5376L65.8486 32.0879L54.9298 8.07954L60.3717 5.60461ZM103.329 -1.95625L105.222 2.2052L88.032 10.0231L86.1394 5.86162L103.329 -1.95625ZM90.735 6.28269L93.764 17.1902L90.1723 15.5785L108.675 7.16377L110.727 11.6773L89.1199 21.5043L85.5172 8.65571L78.2011 -2.50408L99.6486 -12.2582L101.701 -7.74465L83.3589 0.597322L84.5049 -3.16894L90.735 6.28269Z"/>
</mask>
<path d="M6.10722 49.7929L5.69323 48.8826L4.73507 49.3184L5.21933 50.253L6.10722 49.7929ZM11.6131 47.2889L12.4477 46.738L11.977 46.0248L11.1991 46.3786L11.6131 47.2889ZM13.6449 48.9532L13.2608 49.8765L13.2773 49.8833L13.294 49.8896L13.6449 48.9532ZM16.6543 49.2844L16.7463 50.2801L16.7591 50.2789L16.7719 50.2774L16.6543 49.2844ZM24.4475 45.3538L25.2199 45.9889L25.2249 45.9828L24.4475 45.3538ZM23.3028 40.9681L23.1268 41.9525L23.1461 41.9559L23.1655 41.9586L23.3028 40.9681ZM19.3914 41.6266L19.701 42.5775L19.701 42.5775L19.3914 41.6266ZM14.3102 43.2807L14.0007 42.3299L13.9979 42.3308L14.3102 43.2807ZM6.5339 44.1904L6.2795 45.1575L6.2876 45.1596L6.29573 45.1616L6.5339 44.1904ZM1.8552 35.7716L0.89283 35.4996L0.889876 35.5106L1.8552 35.7716ZM4.64246 31.452L5.32863 32.1796L5.33676 32.1717L4.64246 31.452ZM16.5623 26.1469L16.6235 27.1451L16.6343 27.1443L16.5623 26.1469ZM21.9292 26.9898L21.5155 27.9003L21.5239 27.904L21.9292 26.9898ZM25.4427 30.2982L25.8567 31.2085L26.8182 30.7712L26.3289 29.835L25.4427 30.2982ZM19.9368 32.8022L19.0988 33.3479L19.568 34.0685L20.3507 33.7125L19.9368 32.8022ZM18.1466 31.4144L17.7766 32.3434L17.7956 32.351L17.8148 32.3577L18.1466 31.4144ZM15.4486 31.1733L15.5605 32.1671L15.571 32.1659L15.5815 32.1645L15.4486 31.1733ZM8.23164 34.8419L7.45427 34.2129L7.45427 34.2129L8.23164 34.8419ZM9.35299 39.0064L9.18443 39.9921L9.20449 39.9955L9.22468 39.9981L9.35299 39.0064ZM12.9792 38.4003L13.2771 39.3549L13.2808 39.3537L12.9792 38.4003ZM18.2816 36.7229L18.5832 37.6763L18.5904 37.674L18.5975 37.6716L18.2816 36.7229ZM24.0875 35.4731L24.1254 36.4724L24.1352 36.472L24.145 36.4715L24.0875 35.4731ZM27.8508 36.2727L27.3037 37.1098L27.3109 37.1145L27.3182 37.1191L27.8508 36.2727ZM30.6783 44.1039L29.71 43.8544L29.7095 43.8565L30.6783 44.1039ZM15.4126 54.369L15.4691 55.3675L15.4793 55.3668L15.4126 54.369ZM9.79831 53.4069L9.36252 54.3069L9.37013 54.3105L9.79831 53.4069ZM6.5212 50.7032L12.0271 48.1992L11.1991 46.3786L5.69323 48.8826L6.5212 50.7032ZM10.7786 47.8398C11.3886 48.7639 12.2251 49.4456 13.2608 49.8765L14.029 48.0299C13.3494 47.7472 12.8314 47.3193 12.4477 46.738L10.7786 47.8398ZM13.294 49.8896C14.3333 50.2791 15.4929 50.3959 16.7463 50.2801L16.5623 48.2886C15.5418 48.3829 14.6952 48.2789 13.9958 48.0168L13.294 49.8896ZM16.7719 50.2774C18.0439 50.1268 19.3695 49.7276 20.7439 49.1025L19.9159 47.2819C18.6868 47.8409 17.5619 48.1699 16.5367 48.2913L16.7719 50.2774ZM20.7439 49.1025C22.7113 48.2077 24.2377 47.1834 25.2199 45.9889L23.6751 44.7186C22.9658 45.5812 21.7471 46.4491 19.9159 47.2819L20.7439 49.1025ZM25.2249 45.9828C26.2455 44.7214 26.6213 43.3009 25.9741 41.8779L24.1536 42.7059C24.3993 43.2463 24.3642 43.867 23.6701 44.7247L25.2249 45.9828ZM25.9741 41.8779C25.4853 40.803 24.6098 40.1397 23.4401 39.9775L23.1655 41.9586C23.6451 42.0251 23.9437 42.2443 24.1536 42.7059L25.9741 41.8779ZM23.4788 39.9837C22.3972 39.7903 20.8804 40.0901 19.0818 40.6757L19.701 42.5775C21.4916 41.9944 22.5824 41.8551 23.1268 41.9525L23.4788 39.9837ZM19.0819 40.6757L14.0007 42.3299L14.6198 44.2316L19.701 42.5775L19.0819 40.6757ZM13.9979 42.3308C10.7883 43.3861 8.41284 43.6215 6.77206 43.2191L6.29573 45.1616C8.48131 45.6975 11.29 45.3265 14.6226 44.2307L13.9979 42.3308ZM6.78829 43.2233C5.21487 42.8094 4.02827 41.7869 3.22336 40.017L1.4028 40.845C2.42255 43.0872 4.04982 44.571 6.2795 45.1575L6.78829 43.2233ZM3.22336 40.017C2.5915 38.6277 2.47429 37.313 2.82053 36.0327L0.889876 35.5106C0.410189 37.2844 0.598238 39.0759 1.4028 40.845L3.22336 40.017ZM2.81751 36.0436C3.19263 34.7162 4.00667 33.4263 5.32859 32.1795L3.95633 30.7246C2.43051 32.1637 1.38637 33.7535 0.892892 35.4996L2.81751 36.0436ZM5.33676 32.1717C6.64991 30.9049 8.39573 29.7619 10.6029 28.7581L9.77491 26.9376C7.41513 28.0108 5.46334 29.2706 3.94816 30.7324L5.33676 32.1717ZM10.6029 28.7581C12.7327 27.7895 14.7376 27.2608 16.6235 27.145L16.501 25.1488C14.3279 25.2822 12.084 25.8874 9.77491 26.9376L10.6029 28.7581ZM16.6343 27.1443C18.518 27.0082 20.1351 27.2731 21.5156 27.9003L22.3428 26.0794C20.6069 25.2907 18.646 24.9937 16.4902 25.1495L16.6343 27.1443ZM21.5239 27.904C22.863 28.4977 23.8659 29.4401 24.5564 30.7614L26.3289 29.835C25.4317 28.1182 24.0923 26.855 22.3345 26.0756L21.5239 27.904ZM25.0287 29.3879L19.5228 31.892L20.3507 33.7125L25.8567 31.2085L25.0287 29.3879ZM20.7747 32.2566C20.2226 31.4086 19.4442 30.8106 18.4783 30.471L17.8148 32.3577C18.3819 32.5571 18.7969 32.8844 19.0988 33.3479L20.7747 32.2566ZM18.5166 30.4853C17.5618 30.1051 16.4807 30.0261 15.3158 30.1822L15.5815 32.1645C16.5042 32.0408 17.2217 32.1224 17.7766 32.3434L18.5166 30.4853ZM15.3368 30.1796C14.1541 30.3127 12.9055 30.6905 11.5977 31.2853L12.4257 33.1059C13.5934 32.5748 14.6361 32.2711 15.5605 32.1671L15.3368 30.1796ZM11.5977 31.2853C9.79351 32.1058 8.38041 33.0683 7.45427 34.2129L9.00902 35.4709C9.66572 34.6594 10.7726 33.8577 12.4257 33.1059L11.5977 31.2853ZM7.45427 34.2129C6.98398 34.794 6.64857 35.426 6.51902 36.1076C6.38709 36.8017 6.48097 37.4854 6.7748 38.1314L8.59536 37.3035C8.46215 37.0106 8.43359 36.7455 8.48385 36.481C8.53649 36.2041 8.68789 35.8678 9.00902 35.4709L7.45427 34.2129ZM6.7748 38.1314C7.24121 39.157 8.07389 39.8022 9.18443 39.9921L9.52155 38.0207C9.06819 37.9432 8.78893 37.7291 8.59536 37.3035L6.7748 38.1314ZM9.22468 39.9981C10.2486 40.1306 11.6363 39.8669 13.2771 39.3549L12.6813 37.4457C11.0743 37.9472 10.0445 38.0875 9.4813 38.0147L9.22468 39.9981ZM13.2808 39.3537L18.5832 37.6763L17.9799 35.7694L12.6776 37.4469L13.2808 39.3537ZM18.5975 37.6716C20.8799 36.9116 22.7142 36.5259 24.1254 36.4724L24.0496 34.4738C22.372 34.5374 20.3356 34.9848 17.9656 35.7741L18.5975 37.6716ZM24.145 36.4715C25.5649 36.3897 26.5856 36.6405 27.3037 37.1098L28.3978 35.4356C27.2104 34.6596 25.7222 34.3774 24.03 34.4748L24.145 36.4715ZM27.3182 37.1191C28.0858 37.6021 28.7656 38.4063 29.3189 39.6228L31.1394 38.7948C30.4698 37.3224 29.564 36.1692 28.3833 35.4263L27.3182 37.1191ZM29.3189 39.6228C29.9546 41.0207 30.0799 42.4185 29.71 43.8544L31.6467 44.3534C32.1337 42.4636 31.9595 40.598 31.1394 38.7948L29.3189 39.6228ZM29.7095 43.8565C29.3456 45.2809 28.5212 46.6741 27.1704 48.0328L28.5887 49.4429C30.1359 47.8867 31.1774 46.1907 31.6472 44.3514L29.7095 43.8565ZM27.1704 48.0328C25.8251 49.3858 24.0351 50.5853 21.7707 51.6151L22.5987 53.4357C25.0292 52.3303 27.0358 51.0047 28.5887 49.4429L27.1704 48.0328ZM21.7707 51.6151C19.4654 52.6635 17.326 53.2389 15.3459 53.3713L15.4793 55.3668C17.7483 55.2151 20.1236 54.5613 22.5987 53.4357L21.7707 51.6151ZM15.3561 53.3706C13.3554 53.4838 11.6564 53.1807 10.2265 52.5032L9.37013 54.3105C11.1574 55.1574 13.2013 55.4957 15.4691 55.3674L15.3561 53.3706ZM10.2341 52.5068C8.81379 51.8192 7.74018 50.7708 6.9951 49.3329L5.21933 50.253C6.15905 52.0666 7.54617 53.4275 9.36254 54.3069L10.2341 52.5068ZM37.7879 38.7458L36.8776 39.1598L37.2916 40.0701L38.2019 39.6561L37.7879 38.7458ZM35.7788 34.3283L35.3648 33.418L34.4546 33.832L34.8685 34.7423L35.7788 34.3283ZM52.4246 26.7579L53.3349 26.3439L52.9209 25.4336L52.0106 25.8476L52.4246 26.7579ZM54.4337 31.1754L54.8477 32.0857L55.758 31.6717L55.344 30.7614L54.4337 31.1754ZM41.1095 14.3649L41.7584 13.6041L41.2745 13.1913L40.6955 13.4546L41.1095 14.3649ZM63.2642 33.2633L63.6782 34.1736L65.1092 33.5227L63.9132 32.5025L63.2642 33.2633ZM57.4702 35.8983L56.8105 36.6499L57.296 37.0761L57.8842 36.8086L57.4702 35.8983ZM37.7285 18.5682L37.3145 17.6579L35.9056 18.2986L37.0688 19.3197L37.7285 18.5682ZM39.5211 17.7529L40.5211 17.7496L40.516 16.2019L39.1071 16.8426L39.5211 17.7529ZM39.608 44.0219L40.0219 44.9322L40.6101 44.6647L40.6079 44.0186L39.608 44.0219ZM33.8139 46.657L32.814 46.6461L32.7969 48.2181L34.2279 47.5673L33.8139 46.657ZM34.131 17.5386L33.717 16.6284L33.138 16.8917L33.1311 17.5278L34.131 17.5386ZM38.6982 38.3318L36.6891 33.9143L34.8685 34.7423L36.8776 39.1598L38.6982 38.3318ZM36.1928 35.2385L52.8386 27.6682L52.0106 25.8476L35.3648 33.418L36.1928 35.2385ZM51.5143 27.1719L53.5234 31.5894L55.344 30.7614L53.3349 26.3439L51.5143 27.1719ZM54.0197 30.2651L37.3739 37.8355L38.2019 39.6561L54.8477 32.0857L54.0197 30.2651ZM40.4605 15.1257L62.6152 34.0241L63.9132 32.5025L41.7584 13.6041L40.4605 15.1257ZM62.8502 32.353L57.0562 34.9881L57.8842 36.8086L63.6782 34.1736L62.8502 32.353ZM58.1299 35.1468L38.3882 17.8167L37.0688 19.3197L56.8105 36.6499L58.1299 35.1468ZM38.1425 19.4785L39.9351 18.6632L39.1071 16.8426L37.3145 17.6579L38.1425 19.4785ZM38.5211 17.7562L38.608 44.0252L40.6079 44.0186L40.5211 17.7496L38.5211 17.7562ZM39.194 43.1117L33.3999 45.7467L34.2279 47.5673L40.0219 44.9322L39.194 43.1117ZM34.8139 46.6679L35.131 17.5495L33.1311 17.5278L32.814 46.6461L34.8139 46.6679ZM34.545 18.4489L41.5235 15.2752L40.6955 13.4546L33.717 16.6284L34.545 18.4489ZM60.3717 5.60461L61.282 5.19062L60.868 4.28034L59.9577 4.69433L60.3717 5.60461ZM70.1986 27.2121L69.86 28.1531L72.09 28.9555L71.1089 26.7981L70.1986 27.2121ZM66.6419 25.9323L66.2279 25.022L63.9887 26.0404L66.3033 26.8732L66.6419 25.9323ZM84.6641 17.7359L85.5744 17.3219L85.1604 16.4116L84.2502 16.8256L84.6641 17.7359ZM86.8479 22.5376L87.2619 23.4479L88.1722 23.0339L87.7582 22.1236L86.8479 22.5376ZM65.8486 32.0879L64.9383 32.5019L65.3523 33.4122L66.2626 32.9982L65.8486 32.0879ZM54.9298 8.07954L54.5158 7.16926L53.6055 7.58325L54.0195 8.49353L54.9298 8.07954ZM59.4614 6.0186L69.2883 27.6261L71.1089 26.7981L61.282 5.19062L59.4614 6.0186ZM70.5372 26.2712L66.9804 24.9914L66.3033 26.8732L69.86 28.1531L70.5372 26.2712ZM67.0559 26.8426L85.0781 18.6462L84.2502 16.8256L66.2279 25.022L67.0559 26.8426ZM83.7539 18.1499L85.9376 22.9516L87.7582 22.1236L85.5744 17.3219L83.7539 18.1499ZM86.4339 21.6273L65.4346 31.1776L66.2626 32.9982L87.2619 23.4479L86.4339 21.6273ZM66.7589 31.6739L55.8401 7.66555L54.0195 8.49353L64.9383 32.5019L66.7589 31.6739ZM55.3438 8.98982L60.7857 6.51489L59.9577 4.69433L54.5158 7.16926L55.3438 8.98982ZM103.329 -1.95625L104.24 -2.37024L103.826 -3.28052L102.915 -2.86653L103.329 -1.95625ZM105.222 2.2052L105.636 3.11548L106.546 2.70149L106.132 1.79121L105.222 2.2052ZM88.032 10.0231L87.1217 10.4371L87.5357 11.3473L88.446 10.9334L88.032 10.0231ZM86.1394 5.86162L85.7254 4.95134L84.8152 5.36533L85.2292 6.27561L86.1394 5.86162ZM90.735 6.28269L91.6985 6.01511L91.6565 5.86361L91.5699 5.73233L90.735 6.28269ZM93.764 17.1902L93.3546 18.1025L95.2973 18.9742L94.7276 16.9226L93.764 17.1902ZM90.1723 15.5785L89.7583 14.6683L87.7433 15.5847L89.7629 16.4909L90.1723 15.5785ZM108.675 7.16377L109.585 6.74978L109.171 5.8395L108.261 6.25349L108.675 7.16377ZM110.727 11.6773L111.141 12.5876L112.052 12.1736L111.638 11.2634L110.727 11.6773ZM89.1199 21.5043L88.1571 21.7743L88.472 22.8975L89.5339 22.4146L89.1199 21.5043ZM85.5172 8.65571L86.48 8.38572L86.4383 8.2368L86.3535 8.10745L85.5172 8.65571ZM78.2011 -2.50408L77.7871 -3.41437L76.7252 -2.93142L77.3648 -1.95582L78.2011 -2.50408ZM99.6486 -12.2582L100.559 -12.6722L100.145 -13.5825L99.2346 -13.1685L99.6486 -12.2582ZM101.701 -7.74465L102.115 -6.83437L103.026 -7.24836L102.612 -8.15864L101.701 -7.74465ZM83.3589 0.597322L82.4023 0.306238L81.7579 2.42403L83.7729 1.5076L83.3589 0.597322ZM84.5049 -3.16894L85.3398 -3.71929L84.168 -5.49707L83.5482 -3.46002L84.5049 -3.16894ZM102.419 -1.54226L104.312 2.61919L106.132 1.79121L104.24 -2.37024L102.419 -1.54226ZM104.808 1.29492L87.618 9.11279L88.446 10.9334L105.636 3.11548L104.808 1.29492ZM88.9423 9.60908L87.0497 5.44763L85.2292 6.27561L87.1217 10.4371L88.9423 9.60908ZM86.5534 6.7719L103.743 -1.04597L102.915 -2.86653L85.7254 4.95134L86.5534 6.7719ZM89.7715 6.55026L92.8005 17.4577L94.7276 16.9226L91.6985 6.01511L89.7715 6.55026ZM94.1734 16.2778L90.5817 14.6662L89.7629 16.4909L93.3546 18.1025L94.1734 16.2778ZM90.5863 16.4888L109.089 8.07406L108.261 6.25349L89.7583 14.6683L90.5863 16.4888ZM107.764 7.57776L109.817 12.0913L111.638 11.2634L109.585 6.74978L107.764 7.57776ZM110.313 10.7671L88.706 20.594L89.5339 22.4146L111.141 12.5876L110.313 10.7671ZM90.0828 21.2343L86.48 8.38572L84.5543 8.9257L88.1571 21.7743L90.0828 21.2343ZM86.3535 8.10745L79.0374 -3.05234L77.3648 -1.95582L84.6809 9.20397L86.3535 8.10745ZM78.6151 -1.5938L100.063 -11.3479L99.2346 -13.1685L77.7871 -3.41437L78.6151 -1.5938ZM98.7383 -11.8442L100.791 -7.33066L102.612 -8.15864L100.559 -12.6722L98.7383 -11.8442ZM101.287 -8.65493L82.945 -0.31296L83.7729 1.5076L102.115 -6.83437L101.287 -8.65493ZM84.3156 0.888406L85.4616 -2.87785L83.5482 -3.46002L82.4023 0.306238L84.3156 0.888406ZM83.6699 -2.61858L89.9001 6.83304L91.5699 5.73233L85.3398 -3.71929L83.6699 -2.61858Z" fill="white" mask="url(#path-1-outside-1_350_15364)"/>
</svg>
